<?xml version="1.0" encoding="UTF-8"?>
<svg width="297mm" height="159mm" version="1.1" viewBox="0 0 1122.5 600.94" xmlns="http://www.w3.org/2000/svg">
 <title>Draek's Den Logo</title>
 <g transform="matrix(2.081 0 0 2.081 -1170.9 -115.63)" stroke-width="3.7795">
  <path d="m629.23 273.17c0.22481-0.39281 17.82-27.828 39.101-60.967 21.281-33.139 38.854-60.528 39.053-60.864l0.36091-0.61097-74.267-74.268 125.7 0.1028 0.0378 97.029 0.0378 97.029-9.5785-43.668c-5.2682-24.017-9.7135-44.348-9.8784-45.18-0.36624-1.8469-1.7572-6.3223-2.5913-8.3377l-0.61402-1.4835-3.7033 3.6173c-2.0368 1.9895-25.604 24.272-52.371 49.516-26.767 25.244-49.348 46.552-50.179 47.35-1.238 1.1882-1.4376 1.3216-1.1028 0.73663zm103.23-160.43c1.5385-6.1559 2.754-11.236 2.7011-11.289-0.0529-0.0529-6.7453-0.0726-14.872-0.0438l-14.776 0.0522 11.937 11.447c6.6392 6.3663 11.998 11.353 12.075 11.236 0.0755-0.11565 1.3962-5.2468 2.9347-11.403zm-168.46 155.5c6e-3 -0.91733 20.787-197.94 20.888-198.04 0.15326-0.15307 81.358 59.13 81.499 59.498 0.21634 0.56379-7.6376 74.322-7.9451 74.615-1.7226 1.6374-94.446 64.402-94.442 63.928zm24.994-35.085c47.502-15.613 63.481-92.891 25.053-121.16-4.0331-2.9672-13.179-7.4354-13.798-6.741-0.044 0.0495-3.5374 28.923-7.7632 64.163-4.2258 35.24-7.7309 64.288-7.7893 64.551-0.13553 0.6099 0.13308 0.55929 4.298-0.80962zm192.46 21.105c-0.17348-0.76286-4.7888-20.165-10.256-43.117-5.4677-22.951-9.9338-41.867-9.9248-42.036 8e-3 -0.16819 0.97153-2.6017 2.139-5.4075 1.1675-2.8058 11.657-28.221 23.311-56.478 11.653-28.257 21.256-51.305 21.34-51.218 0.11339 0.1183 39.906 73.84 56.451 104.58 1.1383 2.1151 1.6846 3.3361 1.5978 3.571-1.6506 4.4665-34.927 86.135-34.981 85.853-0.0431-0.22261-2.8983-17.323-6.3451-38.002-3.4468-20.679-6.3051-37.636-6.3517-37.682-0.13266-0.13267-17.591 2.3063-17.756 2.4806-0.0813 0.0854-0.3292 0.9817-0.55189 1.9918-0.61735 2.803-18.23 76.716-18.297 76.786-0.034 0.034-0.20069-0.56349-0.37417-1.3264zm4.2261-71.499c0.0431-0.0457-0.40879-3.3428-1.0044-7.327-0.59561-3.9842-1.0496-7.2778-1.0088-7.3189 0.0408-0.0412 0.4919-0.12208 1.0025-0.17953 0.51061-0.0574 0.92674-0.16139 0.92477-0.23093-2e-3 -0.0695-0.13795-0.94696-0.30236-1.9497-0.16441-1.0028-0.25814-1.8638-0.20863-1.9134 0.0956-0.0956 1.8141-0.43733 1.8791-0.37342 0.0227 0.0189 0.59652 3.8005 1.2789 8.3996 0.68235 4.5992 1.2892 8.5785 1.3485 8.843 0.0922 0.41208 1.7076 0.54021 2.0573 0.16327 0.0151-0.0189-0.46522-3.3376-1.0701-7.3779-1.3415-8.9612-1.32-8.1986-0.23471-8.312 0.47698-0.0499 0.90803-0.0571 0.95792-0.0151 0.0499 0.0412 0.6531 3.8359 1.3406 8.4328 0.68746 4.5968 1.304 8.4119 1.37 8.478 0.34961 0.3496 1.989-0.1663 1.8967-0.59657-0.0514-0.24-0.37493-2.3646-0.71845-4.7214-0.34356-2.3568-0.67257-4.5253-0.73092-4.8187-0.10054-0.5063-0.0533-0.54047 0.92564-0.67037l1.0317-0.13682-0.12019-0.86003c-0.0661-0.47305-0.15307-0.96771-0.19275-1.0993-0.0431-0.14287 0.27212-0.29631 0.78224-0.38064 0.4701-0.0778 0.90747-0.17196 0.97187-0.20976 0.0643-0.0378-0.0552-1.3271-0.2657-2.8657-0.41824-3.0563-0.40093-3.1314 0.72348-3.1375 0.44927-2e-3 0.55283-0.0813 0.47388-0.36019-0.60586-2.1418-0.37002-2.8992 0.9047-2.9047l0.72915-3e-3 0.35338 2.6979c0.41326 3.1553 0.27364 2.8971 1.4693 2.7178l0.95316-0.14287-0.11527-0.85088c-0.0635-0.46802-0.17764-1.3258-0.25361-1.9061l-0.13833-1.0552 0.95184-0.14287c1.1727-0.17575 1.033-0.40535 1.369 2.2508 0.3103 2.4543 0.35489 2.5139 1.6912 2.2632 0.5859-0.10998 0.64876-0.18708 0.57305-0.70276-0.0813-0.55287-0.0408-0.58541 0.88528-0.71233 1.1754-0.16101 1.0549-0.28649 1.2531 1.3043l0.16441 1.3188 0.91639-0.0722c1.24-0.0979 1.1919 0.0227 0.86906-2.1833-0.3515-2.4035-0.30954-2.5398 0.78335-2.5398h0.85081l-0.13871-1.3774c-0.0763-0.75753-0.19238-1.7217-0.25815-2.1426-0.11943-0.7629-0.11754-0.7652 0.60382-0.7652 0.39799 0 0.85573-0.0507 1.0172-0.11263 0.21808-0.0839 0.32315 0.11263 0.40872 0.7652 0.0631 0.48284 0.27213 2.0834 0.46394 3.5567l0.34885 2.6788 2.0893-0.053 0.10205 0.81623 0.10205 0.81622 1.0477-0.0264 1.0477-0.0265 0.13644 1.2506c0.29745 2.7265 0.31597 2.7811 0.94084 2.7811 0.64037 0 0.59516-0.12473 1.1083 3.0608 0.17159 1.0662 0.35981 2.2267 0.41824 2.5789 0.0952 0.57517 1.357 0.71736 1.8643 0.21014 0.0265-0.0264-0.44027-2.7976-1.0338-6.1615-0.59361-3.3638-1.063-6.139-1.0431-6.1669 0.0378-0.0529 1.9369-0.42542 1.9468-0.382 3e-3 0.0151 0.35452 1.9989 0.78111 4.4119l0.77545 4.3872 2.0747-0.0854 0.13909 1.0119c0.16478 1.1994 0.16516 1.1996 1.2742 0.96654 1.0634-0.22337 1.0746 0.37039-0.12095-6.4385-0.96344-5.4868-0.97137-5.5672-0.5557-5.6498 0.23206-0.0461 0.67211-0.13682 0.97825-0.20145 0.45997-0.0971 0.57419-0.0378 0.65802 0.34431 0.14324 0.65133 0.92799 5.1126 0.92799 5.2746 0 0.12396 1.8247-0.14174 1.9697-0.28687 0.034-0.034-0.26986-1.9646-0.67873-4.2866-0.40887-2.3221-0.70594-4.2553-0.66009-4.2962 0.0457-0.0408 0.49961-0.13455 1.0084-0.20825l0.92511-0.13417 0.49149 2.9833 0.49153 2.9833 2.07-0.25852 0.47547 2.8145c0.26154 1.5479 0.5676 3.2572 0.68023 3.7983l0.20485 0.98381 0.84722-0.13757c1.203-0.1954 1.1864-0.0265 0.42301-4.2787-0.87345-4.8631-0.88536-4.5289 0.16932-4.7447 1.1122-0.22753 0.98653-0.54607 1.9016 4.8179l0.77828 4.5624 0.88928-0.10016c1.2364-0.13947 1.2166 0.12057 0.36511-4.7876-0.42377-2.4426-0.78214-4.5272-0.79643-4.6324-0.034-0.24454 1.571-0.53341 1.7128-0.30841 0.0586 0.0926 0.37153 1.7353 0.69593 3.6501 0.64119 3.786 0.55014 3.6295 1.9494 3.3496l0.65998-0.1319-0.13568-1.0223c-0.15005-1.1316 8e-3 -1.358 0.9462-1.3633 0.86325-4e-3 0.86177-0.14551-0.0567-5.4181-0.94919-5.4482-0.95943-5.1839 0.20901-5.3976 0.98078-0.17952 0.80677-0.63333 1.6804 4.3849 0.78059 4.4836 0.94613 4.3263 0.96631-0.91824 0.0265-7.1834-0.73961-9.9082-8.188-29.078l-4.7571-12.243-14.99-27.803c-8.2443-15.291-15.038-27.801-15.097-27.798-0.11339 0.0038-22.778 54.891-23.711 57.422-0.54334 1.4728-7.4975 28.056-8.3047 31.746-1.8046 8.2495-1.6708 15.583 0.40294 22.089 0.62033 1.9461 0.79804 2.1752 1.3945 1.7978 0.25134-0.15912 0.19956-0.82095-0.36019-4.6192-0.35943-2.4385-0.62895-4.4527-0.59924-4.4759 0.0302-0.0227 0.47951-0.0979 0.99964-0.16592l0.94568-0.1236 0.20296 1.3702c0.1115 0.75364 0.6497 4.3853 1.1957 8.0704l0.99284 6.7001 1.0724-0.13417c1.0718-0.1338 1.0725-0.1338 1.0752 0.44186 8e-3 1.28 0.14551 1.4378 1.1362 1.2875 0.49803-0.0756 0.9408-0.17499 0.98396-0.22035zm19.711-26.406c0-0.37417-0.10885-0.51016-0.40811-0.51016-0.27213 0-0.40812-0.13606-0.40812-0.40811 0-0.2245-0.0918-0.40811-0.20409-0.40811-0.11225 0-0.2041-0.27553-0.2041-0.61217 0-0.33676-0.0918-0.61217-0.20409-0.61217-0.11225 0-0.2041 0.41321-0.2041 0.91827 0 0.50502-0.0918 0.91824-0.20409 0.91824-0.11225 0-0.20409-0.42305-0.20409-0.94008 0-0.70538-0.0688-0.91371-0.27553-0.83437-0.2177 0.0835-0.27553-0.25361-0.27553-1.6106 0-0.94398 0.0684-1.7163 0.15194-1.7163 0.0835 0 0.19653-0.34432 0.25058-0.76524 0.054-0.42085 0.20069-1.5457 0.3258-2.4997 0.62615-4.7759 0.60555-5.2793-0.19578-4.7839-0.27024 0.16706 0.0393-2.5942 1.008-8.9899l0.18558-1.2243 0.0438 1.8365 0.0435 1.8365 0.38453-2.4487c0.21165-1.3468 0.44738-2.9502 0.52425-3.5632 0.0949-0.75662 0.18407-0.98876 0.27704-0.72287 0.18293 0.52165 0.40842-1.6756 0.40842-3.9806 0-0.97852 0.18368-3.1353 0.40811-4.7929 0.22451-1.6576 0.41288-3.8048 0.41874-4.7718 8e-3 -0.96691 0.17952-2.9517 0.38607-4.4107l0.37531-2.6527 0.0438 2.2446 0.0438 2.2446 0.37228-2.4487c0.20485-1.3468 0.38506-3.2292 0.40048-4.1832 0.0265-1.6025 0.35376-1.8996 0.39318-0.35641 8e-3 0.30917 0.19805 0.90452 0.42248 1.3233 0.29858 0.55748 0.41193 1.1722 0.42244 2.2949 8e-3 0.8434 0.0933 1.7171 0.18973 1.9415 0.10772 0.25134 0.18633-0.96536 0.20409-3.1629 0.0385-4.7816 0.59955-3.9463 0.82243 1.2244 0.1372 3.1794 0.32617 4.314 0.90331 5.4208 0.1799 0.34507 0.31899 1.1609 0.32806 1.9252 0.0227 1.8038 0.35565 2.5782 0.39647 0.91827l0.0302-1.2243 0.75288 2.0406 0.0604-3.673 0.37644 1.0203c0.30161 0.81699 0.38249 1.6708 0.40664 4.2852 0.0302 3.0954 0.34281 5.4422 0.40959 3.0608 0.0472-1.6836 0.37493-0.45933 0.40959 1.5304 0.0189 1.1138 0.16478 2.0996 0.40664 2.7548l0.37644 1.0203 0.0302-1.7345 0.0302-1.7345 0.75288 2.0406 0.0265-3.571 0.0265-3.571 0.3984 1.0203c0.22601 0.57865 0.39847 1.5144 0.39858 2.1617 8e-5 0.62777 0.18369 1.6752 0.40827 2.3276 0.35981 1.0458 0.40811 1.7176 0.40811 5.6766 0 3.7061 0.0624 4.6895 0.35717 5.6306l0.35716 1.1402 0.10281-1.4284 0.1028-1.4284 0.24227 0.91827c1.0284 3.8963 1.6972 6.31 1.8835 6.7981 0.12056 0.31597 0.2245 1.0965 0.23055 1.7345 8e-3 0.65194 0.18028 1.5622 0.39673 2.0783l0.38529 0.91824 0.0265-1.6325 0.0264-1.6324 0.40759 1.1223c0.31861 0.87768 0.39031 1.4869 0.32844 2.7948-0.0435 0.9199-0.0189 1.6349 0.0559 1.5889 0.0744-0.0461 0.28081 0.43945 0.45894 1.0788 0.24492 0.87954 0.26495 1.1998 0.0824 1.3158-0.37115 0.23622-0.54713 0.18897-0.54713-0.14665 0-0.17008-0.18141-0.30614-0.40811-0.30614-0.36926 0-0.40811 0.13606-0.40811 1.4284 0 1.2924-0.0389 1.4284-0.40812 1.4284-0.34771 0-0.40811-0.13606-0.40811-0.91823 0-0.50506-0.0918-0.91828-0.2041-0.91828-0.11225 0-0.20409 0.27553-0.20409 0.61217 0 0.33676-0.0918 0.61217-0.20409 0.61217-0.11226 0-0.2041-0.45913-0.2041-1.0203v-1.0203h-1.6324v1.0203c0 0.56115-0.0525 1.0203-0.11679 1.0203-0.32164 0-0.69963-0.65378-0.69963-1.2098 0-0.49069-0.0884-0.62676-0.40811-0.62676-0.35377 0-0.40811 0.13607-0.40811 1.0203 0 0.56114-0.0525 1.0203-0.11679 1.0203-0.32164 0-0.69963-0.65378-0.69963-1.2098 0-0.34469-0.0918-0.62676-0.2041-0.62676-0.11225 0-0.20409 0.41322-0.20409 0.91827 0 0.50502-0.0918 0.91824-0.20409 0.91824-0.11226 0-0.2041 0.44931-0.2041 0.99844 0 0.91143-0.19616 1.2462-0.73088 1.2462-0.0469 0-0.0854-0.55094-0.0854-1.2243 0-0.68016 0.0907-1.2243 0.20409-1.2243 0.11226 0 0.2041-0.13757 0.2041-0.30614 0-0.16819-0.0918-0.30614-0.2041-0.30614-0.11225 0-0.20409 0.0918-0.20409 0.20409 0 0.11226-0.18369 0.2041-0.40811 0.2041-0.31748 0-0.40812-0.13606-0.40812-0.61217s-0.0907-0.61217-0.40811-0.61217c-0.34772 0-0.40816 0.13606-0.40816 0.91827 0 0.50502-0.0918 0.91824-0.20409 0.91824-0.11226 0-0.2041-0.36737-0.2041-0.81623 0-0.44893-0.0918-0.81622-0.20409-0.81622-0.11226 0-0.2041 0.32126-0.2041 0.71421 0 0.39281-0.0918 0.71418-0.20409 0.71418-0.11225 0-0.2041-0.32126-0.2041-0.71418 0-0.3928-0.0918-0.71421-0.20409-0.71421-0.11225 0-0.2041 0.27552-0.2041 0.61217 0 0.33675-0.0918 0.61217-0.20409 0.61217-0.11225 0-0.20409-0.28536-0.20409-0.63398 0-0.49429-0.0711-0.60673-0.32278-0.51016-0.17763 0.068-0.36132 0.12397-0.40807 0.12397-0.0469 0-0.0854 0.27552-0.0854 0.61217 0 0.33675-0.0918 0.61217-0.20409 0.61217-0.11226 0-0.2041 0.13795-0.2041 0.30614 0 0.17008-0.18142 0.30614-0.40811 0.30614-0.34772 0-0.40812 0.13606-0.40812 0.91827s-0.0605 0.91824-0.40811 0.91824c-0.35868 0-0.40811-0.13606-0.40811-1.1223 0-0.61728-0.0918-1.1223-0.2041-1.1223-0.11225 0-0.20409-0.27553-0.20409-0.61217 0-0.33676-0.0918-0.61217-0.2041-0.61217-0.11225 0-0.20409 0.32126-0.20409 0.71421 0 0.39281-0.0918 0.71418-0.20409 0.71418-0.11226 0-0.2041-0.32126-0.2041-0.71418 0-0.3928-0.0918-0.71421-0.20409-0.71421-0.11226 0-0.2041 0.41321-0.2041 0.91827 0 0.50502-0.0918 0.91824-0.20409 0.91824-0.11225 0-0.2041-0.13758-0.2041-0.30615 0-0.16856-0.0918-0.30614-0.20409-0.30614-0.11225 0-0.2041 0.50506-0.2041 1.1223 0 0.98627-0.0495 1.1223-0.40811 1.1223-0.29934 0-0.40811-0.13607-0.40811-0.51013zm4.0811-2.5725c0-0.49429-0.0711-0.60673-0.32277-0.51016-0.17764 0.068-0.36132 0.12397-0.40811 0.12397-0.0469 0-0.0854 0.22941-0.0854 0.51016 0 0.37417 0.10885 0.51012 0.40811 0.51012 0.32051 0 0.40812-0.13606 0.40812-0.63398zm-2.4487-3.8432c0-0.66675 0.0918-1.2691 0.2041-1.3384 0.12737-0.0786 0.20409 0.33789 0.20409 1.1103 0 0.68822 0.0903 1.2364 0.2041 1.2364 0.11225 0 0.20409-0.13757 0.20409-0.30614 0-0.16819 0.0918-0.30614 0.2041-0.30614 0.11225 0 0.20409 0.13757 0.20409 0.30614 0 0.17008 0.18142 0.30614 0.40811 0.30614 0.22678 0 0.40812-0.13606 0.40812-0.30614 0-0.16819-0.0919-0.30614-0.2041-0.30614-0.11225 0-0.20409-0.13758-0.20409-0.30614 0-0.17008-0.18142-0.30614-0.40812-0.30614-0.36283 0-0.40811-0.13607-0.40811-1.2243 0-1.0883 0.0454-1.2243 0.40811-1.2243 0.22678 0 0.40812 0.13606 0.40812 0.30614 0 0.16819 0.0918 0.30614 0.20409 0.30614 0.11225 0 0.2041 0.13757 0.2041 0.30614 0 0.16819 0.0918 0.30614 0.20409 0.30614 0.11225 0 0.2041-0.0918 0.2041-0.20409 0-0.11225 0.0918-0.2041 0.20409-0.2041 0.3069 0 0.25852 2.3928-0.051 2.5176-0.14022 0.0567 0.1353 0.11037 0.61217 0.11906 0.73655 0.0151 0.86725-0.0453 0.86725-0.39197 0-0.22451-0.0919-0.40812-0.2041-0.40812-0.11338 0-0.20409-0.54417-0.20409-1.2243 0-0.6802 0.0907-1.2243 0.20409-1.2243 0.11225 0 0.2041 0.18369 0.2041 0.40811 0 0.22451 0.0918 0.40812 0.20409 0.40812 0.11225 0 0.2041 0.32126 0.2041 0.71418 0 0.3928 0.0918 0.71422 0.20409 0.71422 0.11225 0 0.2041-0.32126 0.2041-0.71422 0-0.39281 0.0918-0.71418 0.20409-0.71418 0.11225 0 0.20409 0.50502 0.20409 1.1223s0.0919 1.1223 0.2041 1.1223c0.11527 0 0.20409-0.57819 0.20409-1.3264 0-0.74819 0.0888-1.3264 0.2041-1.3264 0.11225 0 0.20409 0.22942 0.20409 0.51013 0 0.28044 0.0918 0.51016 0.2041 0.51016 0.12321 0 0.20409-0.85024 0.20409-2.1426 0-2.0066 0.0265-2.1426 0.40812-2.1426 0.49009 0 0.64124 2.4339 0.15307 2.4648-0.20409 0.0113-0.20409 0.0378 0 0.11905 0.16366 0.0661 0.25512 0.53534 0.25512 1.3103 0 0.66883 0.0911 1.2073 0.2041 1.2073 0.11338 0 0.20409-0.54417 0.20409-1.2243 0-0.6802 0.0907-1.2243 0.20409-1.2243s0.2041 0.54414 0.2041 1.2243c0 0.68017-0.0907 1.2243-0.2041 1.2243-0.11225 0-0.20409 0.1474-0.20409 0.32807 0 0.21505 0.11112 0.28535 0.32277 0.20409 0.17764-0.068 0.5678-0.13115 0.86725-0.13984 0.29934-8e-3 0.4297-0.0624 0.28951-0.11906-0.47765-0.19275-0.33637-2.5176 0.15308-2.5176 0.36623 0 0.40811 0.13606 0.40811 1.3264 0 0.72953 0.0386 1.3264 0.0854 1.3264 0.32579 0 0.73088-0.2948 0.73088-0.53201 0-0.15647 0.0918-0.28422 0.2041-0.28422 0.11225 0 0.20409-0.41321 0.20409-0.91827 0-0.50502 0.0918-0.91824 0.20409-0.91824 0.11339 0 0.2041 0.54414 0.2041 1.2243 0 1.105 0.0416 1.2243 0.42554 1.2243 0.39465 0 0.41956-0.0926 0.34356-1.2754-0.12473-1.9412-0.78955-4.2325-1.2282-4.2334-0.25285-4.9e-4 -0.35792-0.16479-0.35981-0.56187-4e-3 -0.87378-0.22186-1.4794-0.53114-1.4794-0.21883 0-0.28535-0.42338-0.29669-1.8875-0.0151-1.9542-0.33714-3.4991-0.39379-1.8875-0.0227 0.64933-0.0646 0.73278-0.20409 0.40812-0.0964-0.22451-0.18898-0.31635-0.20561-0.2041-0.0964 0.65212-0.78573-2.0524-0.79892-3.1344-0.0227-1.7766-1.4612-6.4483-1.6436-5.334-0.15609 0.95267-0.39877 0.19351-0.42429-1.3264-0.0189-1.1539-0.34507-2.2431-0.39658-1.3264-0.048 0.85108-0.3738-0.12699-0.40812-1.2243-0.0151-0.50502-0.10771-1.1019-0.20409-1.3264l-0.17537-0.40811-0.0302 0.40811-0.0302 0.40812-0.17537-0.40812c-0.0964-0.2245-0.18709-0.77541-0.20107-1.2243-0.0265-0.8787-0.78138-2.9494-0.81695-2.2446-0.0151 0.31823-0.0782 0.27288-0.28233-0.2041l-0.26192-0.61217-0.12586 0.81623c-0.0692 0.44893-0.21997 1.7345-0.33524 2.8568-0.11528 1.1223-0.37266 3.5098-0.57237 5.3055l-0.36284 3.2649-0.11338-2.0405c-0.0624-1.1223-0.13115-1.6902-0.15308-1.262-0.0227 0.42822-0.12472 0.93766-0.22866 1.132-0.10393 0.19427-0.29102 1.6292-0.41552 3.1885-0.12434 1.5593-0.31181 2.938-0.41624 3.0638-0.47546 0.5729-0.50381 4.2552-0.0302 4.1318 0.57577-0.15043 0.69006 2.1558 0.11792 2.3755-0.49198 0.1886-0.49179 0.18898-0.51833-0.8454l-0.0265-0.96926-0.1784 1.2243c-0.11527 0.79147-0.10658 1.2484 0.0265 1.2923 0.43548 0.14589 0.24264 2.4827-0.20485 2.4827-0.38219 0-0.40811 0.13606-0.40811 2.1426 0 2.0066 0.0265 2.1426 0.40811 2.1426 0.36246 0 0.40811-0.13606 0.40811-1.2123zm3.2649-4.2972c0-1.0883 0.0453-1.2243 0.40811-1.2243 0.36284 0 0.40812 0.13606 0.40812 1.2243 0 1.0883-0.0454 1.2243-0.40812 1.2243-0.36283 0-0.40811-0.13607-0.40811-1.2243zm1.6324-4.4892c0-1.0883 0.0453-1.2243 0.40811-1.2243 0.36283 0 0.40811 0.13606 0.40811 1.2243 0 1.0883-0.0453 1.2243-0.40811 1.2243-0.36283 0-0.40811-0.13606-0.40811-1.2243zm2.4487 8.8983c0-0.15647-0.14513-0.34015-0.32277-0.40811-0.46818-0.17953-0.49346-0.16517-0.49346 0.28422 0 0.27213 0.13606 0.40811 0.40812 0.40811 0.2245 0 0.40811-0.12812 0.40811-0.28422zm3.4857-17.304c-0.12132-0.34848-0.2279-1.1936-0.2366-1.8783-8e-3 -0.6847-0.18519-1.704-0.39231-2.2652l-0.37644-1.0203-0.0151 1.9112c-0.0151 1.8362 0.43415 3.9044 0.84828 3.9044 0.0858 0 0.16667 0.16063 0.1799 0.35717 0.0227 0.33033 0.0302 0.32957 0.11868-8e-3 0.0522-0.20145-4e-3 -0.65137-0.12586-0.99972zm-5.588-19.04c-0.30538-1.0164-0.35716-1.8134-0.30614-4.6933l0.0616-3.469 0.36208 1.0365c0.30425 0.87175 0.353 1.6179 0.30614 4.6933l-0.0559 3.6568zm39.426 129.93c0.10961-0.19653 6.4288-9.4937 14.042-20.661l13.843-20.304 32.33-0.1044v-19.587h-1.3808c-1.994 0-7.4312 0.36586-10.863 0.73073-5.386 0.57287-7.0835 0.96677-25.803 5.9875-6.2795 1.6842-11.443 3.0368-11.474 3.0057-0.0302-0.0302 4.395-6.6496 9.8358-14.708s9.8924-14.677 9.8924-14.708c0-0.0302-4.4516-6.6494-9.8924-14.708s-9.8669-14.677-9.8358-14.708c0.0302-0.0302 5.1943 1.3215 11.474 3.0057 18.72 5.0208 20.417 5.4147 25.803 5.9875 3.4313 0.36511 8.8685 0.73074 10.863 0.73074h1.3808v-27.953l-16.165-0.0521-16.165-0.0522-13.843-20.304c-7.6138-11.167-13.933-20.464-14.042-20.661-0.18935-0.33978 2.0037-0.35716 44.802-0.35716h45.002v169.77h-45.002c-42.798 0-44.992-0.0189-44.802-0.35717zm67.46-2.1608c10.475-2.5438 17.906-10.168 19.921-20.438 0.41787-2.13 0.41787-121.73 0-123.86-2.0149-10.27-9.4466-17.895-19.921-20.438-1.28-0.31106-3.4046-0.35452-20.457-0.42002l-19.028-0.07332v37.358h34.281v32.102l-4.2342-0.1319c-7.7763-0.24227-12.935-0.83683-19.042-2.1949-1.5772-0.35074-2.8934-0.6051-2.9247-0.56523-0.1217 0.15496-5.4274 20.174-5.4274 20.478 0 0.30463 5.3057 20.323 5.4274 20.478 0.0302 0.0397 1.3475-0.21467 2.9247-0.56522 6.1071-1.3581 11.266-1.9527 19.042-2.1949l4.2342-0.13191v23.735h-34.281v37.358l19.028-0.0733c17.052-0.0654 19.177-0.10923 20.457-0.42006zm37.851-24.969c-8e-3 -89.915 0.0113-135.22 0.0525-135.26 0.0264-0.02268 5.8111 4.3768 12.851 9.7776l12.8 9.8196 4e-3 18.675 4e-3 18.675 3.4978 2.7132 10.137-10.208c12.507-12.594 41.62-41.617 42.939-42.807l0.9693-0.87398v31.828l-16.015 19.567c-8.8082 10.762-16.015 19.613-16.015 19.669 0 0.0559 7.2066 8.907 16.015 19.669l16.015 19.567v31.828l-0.9693-0.87398c-1.3189-1.1892-30.432-30.212-42.939-42.806l-10.137-10.208-3.4978 2.7132-4e-3 18.675-4e-3 18.675-10.556 8.0885c-5.8057 4.4487-11.589 8.8837-12.851 9.8555l-2.2956 1.767zm12.283 6.5474c5.6466-4.3339 10.656-8.1594 11.131-8.5012l0.8648-0.62136-1.2729-0.97708c-0.70012-0.53741-5.6805-4.3628-11.068-8.5008-9.3671-7.1953-9.8003-7.5008-9.9236-6.9993-0.14325 0.58281-0.2298 33.48-0.0881 33.48 0.0491 0 4.7092-3.5459 10.356-7.8798zm68.839-25.126c-0.077-0.20032-2.9496-0.25512-13.418-0.25512h-13.32l26.73 26.733 0.053-13.111c0.03-7.2112 0.01-13.226-0.045-13.366zm-57.531-18.157c-0.12359-0.12359-19.96 15.318-19.973 15.547-8e-3 0.10809 4.4808 3.6445 9.9703 7.859l9.9809 7.6626 0.0521-15.493c0.0302-8.521 0.0151-15.53-0.0302-15.576zm55.314 15.577c-0.1039-0.27137-26.502-32.644-27.302-33.481-0.3768-0.39432-0.3844-0.0582-0.3844 16.682v17.084h13.898c11.798 0 13.881-0.0431 13.788-0.28422zm-53.844-19.407c12.584-9.7641 22.88-17.799 22.88-17.855-3e-4 -0.10847-45.646-35.56-45.934-35.676-0.0934-0.0378-0.1697 16.017-0.1697 35.676s0.0775 35.713 0.17196 35.676c0.0945-0.0378 10.468-8.0568 23.052-17.821zm24.036-15.964c-0.1186-0.11868-18.079 13.848-18.079 14.059 0 0.0949 4.0633 4.2686 9.0295 9.2747l9.0294 9.102 0.052-16.176c0.03-8.8967 0.015-16.214-0.03-16.26zm0.074-20.001-0.01-16.273-9.0866 9.1429c-4.9976 5.0286-9.0561 9.2342-9.0189 9.3458 0.0756 0.22639 17.725 14.023 17.967 14.044 0.084 8e-3 0.1496-7.3093 0.1458-16.26zm16.221-2.4704c7.3723-9.0185 13.453-16.525 13.513-16.682 0.093-0.24151-1.9905-0.28422-13.789-0.28422h-13.898v17.084c0 16.74 0.01 17.076 0.3844 16.682 0.2113-0.22148 6.4163-7.7812 13.788-16.8zm-41.72-16.854v-15.805l-10.254 7.8696c-5.6396 4.3283-10.234 7.9095-10.21 7.9583 0.0816 0.16706 20.158 15.75 20.311 15.766 0.0843 8e-3 0.15307-7.0966 0.15307-15.789zm-9.8105-10.829 10.085-7.7304-0.69838-0.55619c-1.8569-1.479-21.243-16.298-21.321-16.298-0.13908 0-0.0994 32.693 0.0404 33.214 0.12322 0.4605 0.12926 0.45918 0.96647-0.21808 0.46329-0.37493 5.3806-4.1602 10.927-8.4118zm67.261 8.4217c0.054-0.14022 0.074-6.1551 0.045-13.366l-0.053-13.111-13.365 13.366-13.365 13.366h13.32c10.468 0 13.341-0.0548 13.418-0.25512zm30.396 109.94c-7.8957-1.4641-16.097-5.1347-24.028-10.754l-1.9896-1.4097v-15.134l0.8345 0.13341c0.6987 0.11188 1.2878 0.54051 3.622 2.6363 6.3495 5.7011 9.6934 7.8704 13.644 8.8514 8.8682 2.2021 22.715-3.9659 22.025-9.811-0.5941-5.0326-4.6005-7.5709-13.242-8.3892-13.474-1.276-18.991-11.42-14.3-26.294 3.6084-11.442 18.974-19.244 27.759-14.096l0.9691 0.56795-1.1258 0.22488c-2.4229 0.48378-8.6004 5.2599-11.464 8.8637-7.5033 9.4411-4.0611 13.566 11.681 13.999 6.5537 0.18029 9.7616 1.6549 14.715 6.7649 8.0168 8.2698 3.8039 26.242-8.4634 36.105-8.5044 6.8373-14.132 8.9483-20.638 7.742zm6.9379-1.976c3.3564-0.6918 11.752-6.2242 15.538-10.239 6.106-6.4745 9.1204-14.819 8.6-23.807-0.1693-2.9275-2.4593-6.1185-6.6764-9.3041-3.7738-2.8507-5.2999-3.2978-11.37-3.3306-7.3541-0.0397-12.176-1.4282-14.799-4.2615-2.0373-2.2006-2.0031-3.5274 0.2238-8.6846 1.3624-3.1553 5.1731-7.4501 9.3463-10.534 2.4171-1.786 2.3843-1.9599-0.3349-1.7737-8.1845 0.56024-16.707 6.9896-18.985 14.322-4.2346 13.632 0.7694 23.007 12.64 23.682 8.3999 0.47754 13.352 3.5828 14.814 9.289 2.22 8.6656-15.381 16.514-26.992 12.037-2.9016-1.119-6.3552-3.5244-10.857-7.5621-1.127-1.0106-2.0983-1.8376-2.1585-1.8376-0.06 0-0.1096 2.3833-0.1096 5.2962v5.2962l1.9895 1.4199c10.006 7.1408 22.376 11.384 29.129 9.9926zm-43.362-78.938c-2.4534-0.2264-4.8816-0.5935-5.2536-0.79465-0.1399-0.0756 1.513-0.72287 3.673-1.4384 10.319-3.4184 17.726-9.5003 19.209-15.773l0.1326-0.56114h-6.7416v-23.67h8.406l0.9494-1.0571c5.3978-6.0096 15.181-5.101 19.591 1.8195 7.7739 12.201-6.5507 36.025-26.775 39.636-6.2175 1.11-9.4823 2.218-13.19 1.8396zm21.383-18.441c0.5078-0.6596 1.4567-2.0742 2.1086-3.1435l1.1854-1.9442-1.2476-0.7336c-5.0245-2.9545-7.5283-9.2862-5.7139-14.45 0.2453-0.69789 0.4458-1.3177 0.4458-1.3774 0-0.0597-1.1478-0.10848-2.5506-0.10848h-2.5507v19.589h6.7338v1.2062c0 0.66338-0.1826 1.7882-0.4055 2.4997-0.223 0.71142-0.4067 1.3252-0.4081 1.3638 0 0.10242 1.3331-1.5124 2.4028-2.902zm15.626-5.4325c2.1274-4.1233 3.2936-10.359 2.5084-13.412-1.9335-7.5167-10.954-10.543-16.662-5.5898l-0.7142 0.61972 12.55 0.016v22.344l0.7073-1.1223c0.389-0.61723 1.11-1.9028 1.6021-2.8568z"/>
  <path d="m870.65 343.51c-11.975-1.0864-17.02-4.0344-21.6-12.621-6.8442-12.831-1.9092-34.666 8.5773-37.949 4.3616-1.3658 12.035-1.4177 15.834-0.10696 5.8894 2.032 10.623 8.9557 12.792 18.709l0.25814 1.1607-1.4051 1.5699c-6.3762 7.1243-13.667 9.7904-29.022 10.612l-2.7184 0.14551 0.13267 0.52827c2.4211 9.6466 12.346 13.596 29.485 11.733 9.3965-1.0214 15.463-2.7201 25.405-7.1139 2.469-1.0912 5.1753-2.2571 6.0138-2.5908 2.5617-1.0196 7.4098-3.4136 8.2071-4.0526 1.381-1.1068 1.1991-0.60593-0.66187 1.8219-3.8371 5.0061-11.519 10.416-18.967 13.358-7.7656 3.0671-14.97 4.3903-27.705 5.0883-0.47966 0.0265-2.5608-0.10545-4.6248-0.29254zm-5.9711-29.35c5.8554-1.1425 10.857-3.7171 10.167-5.2329-5.5596-12.202-20.839-9.2385-20.839 4.0419 0 1.7492 4.9691 2.3038 10.672 1.191zm63.502 22.033c31.75-9.8024 48.598-18.436 57.539-29.485 11.075-13.686 12.355-20.4 4.9024-25.719-16.875-9.7108-36.819 12.721-47.919 22.212-11.233 9.6285-10.657 9.223-8.461 5.9534 7.4544-11.098 11.468-15.678 28.232-32.216 12.591-12.421 16.009-16.21 21.492-23.821 1.1624-1.6135 2.0434-2.7041 1.9579-2.4235-0.39171 1.2854-1.6526 3.9947-2.9897 6.424-4.124 7.4926-7.9224 14.454-7.9224 14.52 0 0.1629 1.1818 0.0567 2.8409-0.25511 8.5903-1.6144 20.164 2.5145 23.045 8.2212 10.001 19.81-17.95 37.172-20.057 38.445-13.454 8.1244-27.83 13.387-48.069 17.596-6.9795 1.4515-7.8598 1.5564-4.5912 0.54728zm-136.51-0.54452c-25.554-0.75254-50.421-7.227-91.491-23.821-35.312-14.267-48.789-22.274-53.91-32.029-1.7411-3.3164-1.948-4.3316-1.5219-7.4691 0.0317-0.23357 1.3244-0.49727 5.7357-1.1701 24.561-3.7459 36.299-5.1691 51.301-6.2199 37.571-2.6317 68.685 6.9078 83.988 25.75 5.8715 7.2298 10.156 16.275 13.629 28.772 0.85833 3.0887 4.0034 15.786 4.0034 16.163 0 0.14627-7.0927 0.16063-11.733 0.0227zm8.0843-5.6222c-8.3638-27.695-21.553-41.949-49.373-53.362-0.17042-0.0699-0.0796 0.26986 0.24177 0.90399 4.5471 8.9733 0.68734 27.444-7.4954 35.87-0.82471 0.84914-1.4428 1.5762-1.3736 1.6157 1.8686 1.0647 58.574 18.29 58.755 17.848 0.0378-0.0873-0.30388-1.3815-0.75523-2.8756zm-59.449-16.771c8.5454-6.2908 13.41-28.384 7.8751-35.768l-0.48957-0.65318-0.83533 0.2948c-10.494 3.7024-17.419 36.132-7.905 37.015 0.0718 8e-3 0.6815-0.39342 1.3548-0.8891zm-7.0972-2.4142c-3.0609-11.039 3.7766-31.309 11.836-35.087 1.3565-0.63598 1.3713-0.62131-1.5817-1.5629-24.409-7.7834-44.347-6.6179-84.071 4.9145-6.927 2.011-7.01 1.3964 0.61217 4.5338 32.684 13.453 54.435 21.947 71.777 28.028 2.0692 0.72567 1.8878 0.83066 1.4282-0.8267z"/>
 </g>
</svg>
