<svg xmlns="http://www.w3.org/2000/svg" viewBox="0 0 128 129"><path d="m0 27.178 62.6 36.28v64.735L0 91.913zm63.01 36.275 64.735-29.167v64.735l-64.734 29.167z"/><path d="M71.697 36.92q-1.325-.875-1.977-1.326-3.839-2.654-5.994-5.367-1.636-2.028-2.738-4.787-.797-2.018-1.803-6.505-1.021-4.538-2.205-6.497-1.183-1.96-3.284-3.412-3.802-2.629-8.394-2.461-4.629.142-7.141 3.256-2.428 3.01-1.447 6.827.982 3.817 6.016 8.276l-4.702 4.29q-6.896-5.787-8.247-11.735-1.33-5.973 2.957-11.285Q37.278.568 44.217.148q6.94-.42 12.951 3.737 3.477 2.404 5.46 5.61 1.984 3.205 3.419 9.537.967 4.255 1.737 5.888t2.233 3.175q1.464 1.542 5.333 4.298zm12.84 9.327-7.423-5.133 4.328-5.364 7.424 5.133z" aria-label="?"/></svg>