<svg xmlns="http://www.w3.org/2000/svg" viewBox="0 0 156 129"><g stroke="#000" stroke-width=".5" color="#000"><path d="M65.6 80.69v9.699h2.822v23.279H25.047v9.555h2.383v84.45h40.992v.003h66.682v.002h42.007v-84.131h2.274v-9.555h-43.287V90.39h2.847v-9.7zm1 1h71.345v7.699H66.6Zm2.822 8.72h65.676v23.582h-.016v9.555h.016v83.129h-65.66v-84.447h-.016zm-43.375 24.258H68.35v7.555H26.047Zm110.05.324h42.288v7.555h-1.27v-.315h-41.017zM28.43 123.23h39.992v83.445H28.43Zm107.674.318h40.007v83.13h-40.007z" style="-inkscape-stroke:none" transform="translate(-24.263 -79.843)"/><path d="M65.35 80.44v10.199h2.822v22.779H24.797v10.055h2.383v84.45h40.992v.003h66.682v.002h42.507v-84.131h2.274v-10.055h-43.287V90.64h2.847v-10.2Zm.5.5h72.845v9.199h-2.847v24.103h43.287v9.055h-2.274v84.13h-41.507v-.001H68.672v-.002H27.68v-84.451h-2.383v-9.055h43.375v-23.78H65.85zm.5.5v8.199h71.845v-8.2zm.5.5h70.845v7.199H66.85Zm2.322 8.22v32.319h.016v84.447h66.16v-83.63h-.016v-9.054h.016V90.16Zm.5.5h65.176v23.082h-.016v10.055h.016v82.629h-65.16v-84.447h-.016zm-43.875 23.758v8.055H68.6v-8.055zm110.05.324v7.74h41.018v.315h1.77v-8.055zm-109.55.176H68.1v7.055H26.297Zm110.05.324h41.788v7.055h-.77v-.315h-41.017zM28.18 122.98v83.945h40.492V122.98zm107.674.318v83.63h40.507v-83.63zm-107.174.182h39.492v82.945H28.68Zm107.674.318h39.507v82.63h-39.507z" style="-inkscape-stroke:none" transform="translate(-24.263 -79.843)"/><path d="M101.8 93.625c-5.27 0-9.554 4.284-9.554 9.555 0 5.27 4.284 9.554 9.555 9.554 5.27 0 9.553-4.283 9.553-9.554s-4.282-9.555-9.553-9.555zm0 1a8.546 8.546 0 0 1 8.554 8.555 8.546 8.546 0 0 1-8.553 8.554 8.547 8.547 0 0 1-8.555-8.554 8.547 8.547 0 0 1 8.555-8.555z" style="-inkscape-stroke:none" transform="translate(-24.263 -79.843)"/><path d="M101.8 93.375c-5.405 0-9.804 4.398-9.804 9.805 0 5.406 4.399 9.804 9.805 9.804s9.803-4.398 9.803-9.804c0-5.407-4.397-9.805-9.803-9.805zm0 .5c5.136 0 9.304 4.17 9.304 9.305s-4.168 9.304-9.303 9.304c-5.136 0-9.305-4.169-9.305-9.304 0-5.136 4.17-9.305 9.305-9.305zm0 .5a8.802 8.802 0 0 0-8.804 8.805 8.802 8.802 0 0 0 8.805 8.804 8.8 8.8 0 0 0 8.803-8.804 8.8 8.8 0 0 0-8.803-8.805zm0 .5a8.291 8.291 0 0 1 8.304 8.305 8.291 8.291 0 0 1-8.303 8.304 8.293 8.293 0 0 1-8.305-8.304 8.293 8.293 0 0 1 8.305-8.305z" style="-inkscape-stroke:none" transform="translate(-24.263 -79.843)"/><g stroke-linecap="round"><path d="M101.684 98.334a.5.5 0 0 0-.495.506l.057 4.596a.5.5 0 0 0 .506.494.5.5 0 0 0 .494-.506l-.057-4.598a.5.5 0 0 0-.505-.492z" style="-inkscape-stroke:none" transform="translate(-24.263 -79.843)"/><path d="M101.682 98.084a.756.756 0 0 0-.743.76l.057 4.594a.754.754 0 0 0 .758.742.756.756 0 0 0 .742-.76l-.057-4.598a.754.754 0 0 0-.757-.738zm.004.5h.002c.14-.002.25.105.252.246l.056 4.598a.246.246 0 0 1-.248.252.244.244 0 0 1-.252-.246v-.002l-.056-4.596a.244.244 0 0 1 .246-.252z" style="-inkscape-stroke:none" transform="translate(-24.263 -79.843)"/></g><g stroke-linecap="round"><path d="M101.882 103.028a.5.5 0 0 0-.617.346.5.5 0 0 0 .346.617l3.363.952a.5.5 0 0 0 .617-.346.5.5 0 0 0-.346-.617z" style="-inkscape-stroke:none" transform="translate(-24.263 -79.843)"/><path d="M101.95 102.787a.754.754 0 0 0-.927.52.754.754 0 0 0 .52.925l3.363.952a.754.754 0 0 0 .926-.52.754.754 0 0 0-.52-.926zm-.136.483 3.364.95c.136.039.21.173.172.31a.246.246 0 0 1-.309.171l-3.363-.951a.246.246 0 0 1-.172-.309.246.246 0 0 1 .308-.171z" style="-inkscape-stroke:none" transform="translate(-24.263 -79.843)"/></g><g stroke-linecap="square"><path d="M83.297 177.89v29.735h18.432v.006h19.427v-29.734h-18.43v-.006zm1 1h17.43v27.735h-17.43Zm18.432.007h17.427v27.734H102.73z" style="-inkscape-stroke:none" transform="translate(-24.263 -79.843)"/><path d="M83.047 177.64v30.235h18.432v.006h19.927v-30.234h-18.43v-.006zm.5.5h18.93v.007h18.43v29.234h-18.928v-.006H83.547Zm.5.5v28.235h17.93v-28.234zm18.432.007v28.234h17.927v-28.234zm-17.932.494h16.93v27.234h-16.93Zm18.432.006h16.927v27.234H102.98z" style="-inkscape-stroke:none" transform="translate(-24.263 -79.843)"/></g><g stroke-linecap="square"><path d="M13.31 56.606V78.64h22.03V56.606zm1 1h20.03V77.64H14.31z" style="-inkscape-stroke:none"/><path d="M13.059 56.355V78.89h22.53V56.355Zm.5.5h21.53V78.39H13.56zm.5.5V77.89h20.53V57.355Zm.5.5h19.53V77.39H14.56z" style="-inkscape-stroke:none"/><path d="M13.401 67.257v1H35.28v-1H13.901Z" style="-inkscape-stroke:none"/><path d="M13.15 67.006v1.5h22.38v-1.5H13.9Zm.5.5h21.38v.5H13.65Z" style="-inkscape-stroke:none"/><path d="M23.622 56.708v21.847h1V56.708Z" style="-inkscape-stroke:none"/><path d="M23.371 56.457v22.348h1.5V56.457Zm.5.5h.5v21.348h-.5z" style="-inkscape-stroke:none"/></g><g stroke-linecap="square"><path d="M13.309 90.723v22.033H35.34V90.723zm1 1H34.34v20.033H14.31z" style="-inkscape-stroke:none"/><path d="M13.059 90.473v22.533h22.53V90.473Zm.5.5h21.53v21.533H13.56zm.5.5v20.533h20.53V91.473Zm.5.5h19.53v19.533H14.56z" style="-inkscape-stroke:none"/><path d="M13.4 101.374v1h21.88v-1H13.9Z" style="-inkscape-stroke:none"/><path d="M13.15 101.123v1.5h22.38v-1.5H13.9Zm.5.5h21.38v.5H13.65Z" style="-inkscape-stroke:none"/><path d="M23.621 90.825v21.847h1V90.825Z" style="-inkscape-stroke:none"/><path d="M23.371 90.574v22.348h1.5V90.574Zm.5.5h.5v21.348h-.5z" style="-inkscape-stroke:none"/></g><g stroke-linecap="square"><path d="M120.59 56.63v22.033h22.03V56.63zm1 1h20.03v20.033h-20.03z" style="-inkscape-stroke:none"/><path d="M120.34 56.38v22.534h22.531V56.381Zm.5.5h21.531v21.534H120.84zm.5.5v20.534h20.531V57.381Zm.5.5h19.531v19.534H121.84z" style="-inkscape-stroke:none"/><path d="M120.681 67.28v1h21.879v-1h-21.379z" style="-inkscape-stroke:none"/><path d="M120.432 67.031v1.5h22.379v-1.5h-21.63zm.5.5h21.379v.5h-21.38z" style="-inkscape-stroke:none"/><path d="M130.902 56.732V78.58h1V56.732z" style="-inkscape-stroke:none"/><path d="M130.652 56.482V78.83h1.5V56.482Zm.5.5h.5V78.33h-.5z" style="-inkscape-stroke:none"/></g><g stroke-linecap="square"><path d="M120.59 90.747v22.033h22.03V90.747zm1 1h20.03v20.033h-20.03z" style="-inkscape-stroke:none"/><path d="M120.34 90.498v22.533h22.531V90.498Zm.5.5h21.531v21.533H120.84zm.5.5v20.533h20.531V91.498Zm.5.5h19.531v19.533H121.84z" style="-inkscape-stroke:none"/><path d="M120.681 101.398v1h21.879v-1h-21.379z" style="-inkscape-stroke:none"/><path d="M120.432 101.148v1.5h22.379v-1.5h-21.63zm.5.5h21.379v.5h-21.38z" style="-inkscape-stroke:none"/><path d="M130.902 90.849v21.847h1V90.85Z" style="-inkscape-stroke:none"/><path d="M130.652 90.6v22.347h1.5V90.6Zm.5.5h.5v21.347h-.5z" style="-inkscape-stroke:none"/></g><g stroke-linecap="square"><path d="M51.796 36.681v22.033h22.032V36.681zm1 1h20.032v20.033H52.796z" style="-inkscape-stroke:none"/><path d="M51.547 36.432v22.533h22.531V36.432Zm.5.5h21.531v21.533H52.047zm.5.5v20.533h20.531V37.432Zm.5.5h19.531v19.533H53.047z" style="-inkscape-stroke:none"/><path d="M51.888 47.332v1h21.879v-1H52.388Z" style="-inkscape-stroke:none"/><path d="M51.639 47.082v1.5h22.379v-1.5h-21.63Zm.5.5h21.379v.5h-21.38Z" style="-inkscape-stroke:none"/><path d="M62.109 36.783V58.63h1V36.783Z" style="-inkscape-stroke:none"/><path d="M61.86 36.533v22.348h1.5V36.533Zm.5.5h.5v21.348h-.5z" style="-inkscape-stroke:none"/></g><g stroke-linecap="square"><path d="M51.795 66.035v22.033h22.032V66.035zm1 1h20.032v20.033H52.795z" style="-inkscape-stroke:none"/><path d="M51.545 65.785v22.533h22.531V65.785Zm.5.5h21.531v21.533H52.045zm.5.5v20.533h20.531V66.785Zm.5.5h19.531v19.533H53.045z" style="-inkscape-stroke:none"/><path d="M51.887 76.686v1h21.879v-1H52.387Z" style="-inkscape-stroke:none"/><path d="M51.637 76.436v1.5h22.379v-1.5h-21.63Zm.5.5h21.379v.5h-21.38Z" style="-inkscape-stroke:none"/><path d="M62.108 66.137v21.847h1V66.137Z" style="-inkscape-stroke:none"/><path d="M61.857 65.887v22.347h1.5V65.887Zm.5.5h.5v21.347h-.5z" style="-inkscape-stroke:none"/></g><g stroke-linecap="square"><path d="M81.377 36.704v22.033h22.032V36.704zm1 1h20.032v20.033H82.377Z" style="-inkscape-stroke:none"/><path d="M81.127 36.455v22.533h22.531V36.455Zm.5.5h21.531v21.533H81.627Zm.5.5v20.533h20.531V37.455Zm.5.5h19.531v19.533H82.627Z" style="-inkscape-stroke:none"/><path d="M81.47 47.355v1h21.878v-1H81.969Z" style="-inkscape-stroke:none"/><path d="M81.219 47.105v1.5h22.379v-1.5h-21.63Zm.5.5h21.379v.5h-21.38Z" style="-inkscape-stroke:none"/><path d="M91.69 36.806v21.847h1V36.806Z" style="-inkscape-stroke:none"/><path d="M91.44 36.557v22.347h1.5V36.557Zm.5.5h.5v21.347h-.5z" style="-inkscape-stroke:none"/></g><g stroke-linecap="square"><path d="M81.377 66.058v22.034h22.032V66.058zm1 1h20.032v20.034H82.377Z" style="-inkscape-stroke:none"/><path d="M81.127 65.809v22.533h22.531V65.809Zm.5.5h21.531v21.533H81.627Zm.5.5v20.533h20.531V66.809Zm.5.5h19.531v19.533H82.627Z" style="-inkscape-stroke:none"/><path d="M81.47 76.709v1h21.878v-1H81.969Z" style="-inkscape-stroke:none"/><path d="M81.219 76.459v1.5h22.379v-1.5h-21.63Zm.5.5h21.379v.5h-21.38Z" style="-inkscape-stroke:none"/><path d="M91.69 66.16v21.848h1V66.16Z" style="-inkscape-stroke:none"/><path d="M91.44 65.91v22.348h1.5V65.91Zm.5.5h.5v21.348h-.5z" style="-inkscape-stroke:none"/></g></g></svg>